<svg width="30" height="30" viewBox="0 0 30 30" fill="none" xmlns="http://www.w3.org/2000/svg">
<path fill-rule="evenodd" clip-rule="evenodd" d="M14.5434 0.0353645C14.2328 0.138045 13.9685 0.361162 13.8191 0.646743C13.7297 0.817745 13.7236 0.849554 13.7236 1.14803C13.7236 1.4287 13.7331 1.48667 13.8028 1.63367C14.0268 2.10533 14.5538 2.39119 15.0368 2.30292C15.4331 2.23054 15.7531 1.98848 15.9215 1.63367C15.9913 1.48667 16.0007 1.4287 16.0007 1.14803C16.0007 0.849554 15.9947 0.817745 15.9052 0.646743C15.787 0.420773 15.5531 0.197838 15.3242 0.0930028C15.1172 -0.0018469 14.74 -0.0296796 14.5434 0.0353645ZM12.6329 2.60726C12.304 2.91479 12.023 3.36296 11.9206 3.74312L11.8879 3.86453L11.3426 4.04175C10.7198 4.2442 10.0919 4.50841 9.54054 4.80001L9.15974 5.00142L8.90643 4.88314C8.76713 4.81807 8.57118 4.74382 8.47098 4.71809C8.229 4.65599 7.83696 4.62536 7.6241 4.65195L7.45204 4.67344L7.47162 4.93674C7.49606 5.26484 7.44706 5.60224 7.32658 5.93502C6.97384 6.90958 5.98467 7.55065 4.94365 7.47938L4.66505 7.46032L4.64356 7.63226C4.59583 8.01421 4.68588 8.51013 4.87497 8.90671L4.99257 9.15329L4.71148 9.71103C4.39246 10.344 4.23434 10.7289 4.01142 11.415L3.85597 11.8935L3.73452 11.9263C3.35354 12.0293 2.90582 12.3099 2.59828 12.6386C2.41815 12.8311 2.40968 12.8464 2.46308 12.8844C2.92814 13.2153 3.23346 13.6177 3.40108 14.1205C3.47799 14.3511 3.48066 14.3821 3.47083 14.9248C3.46078 15.4804 3.45908 15.493 3.36316 15.7246C3.18567 16.1531 2.93476 16.4905 2.61295 16.7335L2.41739 16.8812L2.47307 16.9592C2.55487 17.0739 2.86383 17.3603 3.02101 17.4673C3.20953 17.5955 3.42413 17.6999 3.66614 17.7811C3.86322 17.8471 3.87218 17.8544 3.90242 17.9746C4.02949 18.4797 4.406 19.4377 4.71506 20.0424L4.8917 20.388L4.82008 20.5034C4.53747 20.9587 4.44845 21.2345 4.42623 21.7236L4.4091 22.1L4.54242 22.0773C5.33201 21.9428 5.92052 22.061 6.49746 22.4701C7.17878 22.9531 7.57154 23.8483 7.45853 24.6606C7.43801 24.8081 7.4129 24.9684 7.40273 25.017L7.38424 25.1052L7.71506 25.0867C8.12431 25.0637 8.41879 24.9832 8.76953 24.7986L9.03769 24.6573L9.13388 24.7139C9.82622 25.1211 11.0585 25.6424 11.755 25.8227C11.8746 25.8537 11.8842 25.8646 11.9346 26.0295C11.9985 26.2379 12.1335 26.517 12.2611 26.7043C12.3688 26.8626 12.655 27.1705 12.7711 27.2534L12.8509 27.3103L12.9305 27.1901C13.2021 26.7798 13.7573 26.4037 14.3005 26.262C14.5845 26.1879 15.1305 26.1878 15.4239 26.2619C15.9864 26.4038 16.4906 26.7585 16.8458 27.2621C16.8835 27.3154 16.8991 27.3068 17.0914 27.1269C17.4198 26.8199 17.6338 26.4867 17.7771 26.0594C17.8431 25.8627 17.8507 25.8534 17.9707 25.8225C18.5389 25.6762 19.461 25.3089 20.138 24.9594L20.571 24.7357L20.8321 24.8581C21.1344 24.9997 21.5495 25.0947 21.8682 25.0953C22.1138 25.0957 22.1132 25.0964 22.0569 24.868C22.0021 24.6455 22.018 24.0729 22.0864 23.8094C22.2949 23.0069 22.8611 22.3989 23.643 22.138C24.0302 22.0088 24.4581 21.9891 24.97 22.0771L25.1039 22.1002L25.0851 21.7912C25.0612 21.3992 24.9974 21.1379 24.8502 20.8292L24.7334 20.5843L25.0141 20.0249C25.3609 19.3334 25.6732 18.5392 25.8216 17.9715C25.8518 17.8557 25.8673 17.8402 25.9831 17.8092C26.3684 17.7064 26.816 17.4269 27.1261 17.0956C27.306 16.9033 27.3146 16.8877 27.2613 16.8501C26.7576 16.495 26.4027 15.9909 26.2607 15.4286C26.1867 15.1353 26.1867 14.5896 26.2608 14.3056C26.4026 13.7626 26.7788 13.2076 27.1892 12.936L27.3095 12.8565L27.2525 12.7767C27.1697 12.6606 26.8615 12.3745 26.7033 12.2669C26.5141 12.1382 26.2995 12.0344 26.0581 11.955C25.9454 11.918 25.8532 11.8837 25.8532 11.8789C25.8532 11.8741 25.8112 11.7284 25.7599 11.5551C25.5496 10.8453 25.1291 9.86674 24.7784 9.27099L24.6064 8.97886L24.7181 8.65254C24.8145 8.37097 24.8319 8.27779 24.8446 7.97263C24.8527 7.77813 24.8503 7.58303 24.8393 7.53908L24.8192 7.45917L24.5544 7.47874C24.2368 7.5022 23.8235 7.43904 23.5387 7.32355C23.3726 7.2562 23.2796 7.17932 22.8085 6.71952C22.3222 6.24479 22.261 6.17364 22.1906 6.00042C22.0701 5.70401 22.0239 5.42705 22.0297 5.03584L22.0349 4.68512L21.9174 4.65917C21.6252 4.59464 21.0078 4.69156 20.6208 4.86265L20.4555 4.93574L20.1409 4.77445C19.4659 4.42829 18.5077 4.04734 17.9676 3.91036C17.8515 3.88092 17.8363 3.86583 17.8053 3.7498C17.7573 3.57009 17.589 3.21336 17.4704 3.03972C17.3569 2.87378 17.0721 2.56556 16.955 2.48209L16.8769 2.42643L16.7292 2.62192C16.4861 2.94368 16.1401 3.19831 15.6971 3.38142C15.4931 3.46574 15.462 3.46968 14.9199 3.47949C14.377 3.48935 14.3461 3.48668 14.1153 3.4098C13.6123 3.24222 13.2098 2.93701 12.8789 2.47211C12.8409 2.41872 12.8255 2.42719 12.6329 2.60726ZM4.83113 3.97225C4.64401 4.0192 4.36541 4.18168 4.24673 4.31301C4.1867 4.37939 4.09479 4.5242 4.04248 4.63477C3.95783 4.81366 3.94736 4.86587 3.94736 5.10896C3.94736 5.35271 3.95771 5.40404 4.04357 5.58551C4.21412 5.94594 4.50747 6.16982 4.91693 6.25201C5.23917 6.31672 5.64951 6.18836 5.90124 5.94415C6.49017 5.37278 6.32764 4.40403 5.5845 4.05638C5.37009 3.95607 5.04163 3.91941 4.83113 3.97225ZM24.0569 3.99683C23.7381 4.10212 23.4956 4.3097 23.3428 4.60815C23.265 4.75994 23.2573 4.80401 23.2573 5.09427C23.2573 5.39345 23.2635 5.42607 23.3567 5.61544C23.7127 6.33897 24.6368 6.49215 25.2094 5.9226C25.2987 5.83382 25.4068 5.68473 25.4523 5.58755C25.5244 5.43381 25.5344 5.37542 25.5344 5.10832C25.5344 4.82605 25.5272 4.78963 25.435 4.60229C25.1829 4.09047 24.578 3.82468 24.0569 3.99683ZM11.6742 4.90241C10.8686 5.19079 9.91318 5.61456 9.91318 5.68352C9.91318 5.70228 10.0098 5.81288 10.128 5.92928C10.4388 6.23559 10.4972 6.38368 10.4153 6.65827C10.3736 6.79813 10.2443 6.93444 8.57057 8.60392C6.80426 10.3657 6.76786 10.3998 6.61784 10.4309C6.46457 10.4627 6.30724 10.4445 6.19311 10.3819C6.1601 10.3638 6.03784 10.2524 5.9214 10.1344C5.80496 10.0163 5.6945 9.91973 5.67595 9.91973C5.6574 9.91973 5.55794 10.0948 5.45489 10.3089C5.24102 10.7531 5.1639 10.9396 4.98024 11.4565L4.84938 11.8248L5.22244 11.8372C5.57208 11.8488 5.60457 11.8552 5.7405 11.9394C5.83508 11.998 5.91007 12.0757 5.95616 12.163L6.02685 12.2967L6.02666 14.8339C6.02657 16.4811 6.01555 17.4106 5.99524 17.4837C5.97802 17.5456 5.92201 17.6382 5.87073 17.6895C5.7071 17.853 5.61787 17.8818 5.22985 17.8964C5.03365 17.9037 4.87309 17.9209 4.87309 17.9346C4.87309 18.1076 5.52369 19.6627 5.59604 19.6627C5.60913 19.6627 5.67383 19.6069 5.73983 19.5387C5.96846 19.3025 6.2491 19.2271 6.48307 19.3388C6.63506 19.4115 10.0955 22.8767 10.1629 23.0237C10.2762 23.2712 10.2191 23.4723 9.95422 23.7583C9.84386 23.8774 9.75872 23.9797 9.76504 23.9854C9.80694 24.0234 10.3465 24.2971 10.6115 24.4146C10.9811 24.5786 11.607 24.8167 11.7367 24.8426L11.826 24.8605L11.8267 24.5759C11.8271 24.4194 11.8395 24.2392 11.8543 24.1755C11.8939 24.005 12.0276 23.8316 12.1743 23.7606C12.3019 23.6989 12.3328 23.6983 14.8985 23.7064L17.4937 23.7147L17.6148 23.7986C17.8224 23.9424 17.8784 24.0827 17.8931 24.4962C17.9021 24.7466 17.9167 24.8529 17.9423 24.8529C18.127 24.8529 19.8112 24.1335 19.8112 24.0546C19.8112 24.0381 19.7042 23.9133 19.5735 23.7772C19.2971 23.4894 19.2464 23.3657 19.2998 23.109C19.331 22.9587 19.3642 22.9232 21.0971 21.1857C22.0681 20.212 22.9104 19.3911 22.9688 19.3613C23.27 19.208 23.4649 19.265 23.8085 19.6068L24.06 19.8568L24.271 19.4183C24.5318 18.8765 24.8474 18.0735 24.8505 17.9444C24.851 17.9223 24.7267 17.9055 24.4896 17.8957C24.1687 17.8825 24.1125 17.8718 23.9913 17.8008C23.9161 17.7567 23.8227 17.6694 23.7836 17.6066L23.7127 17.4925L23.7044 14.9008C23.6962 12.3271 23.6966 12.3082 23.7595 12.1783C23.8854 11.9183 24.1518 11.8141 24.6326 11.8368C24.8207 11.8456 24.8514 11.84 24.8513 11.7965C24.8512 11.7231 24.6399 11.1463 24.4583 10.7241C24.3279 10.4206 24.0267 9.8169 23.9824 9.77019C23.9756 9.76306 23.837 9.88753 23.6744 10.0468C23.5118 10.2061 23.3312 10.3607 23.2731 10.3904C23.1141 10.4717 22.8812 10.4615 22.7208 10.3662C22.5226 10.2484 19.1568 6.86566 19.0989 6.72617C19.035 6.57207 19.0399 6.35927 19.1106 6.22318C19.1427 6.16126 19.2794 6.00164 19.4142 5.86845C19.549 5.7353 19.6594 5.61486 19.6594 5.60078C19.6594 5.53052 18.1031 4.88132 17.9347 4.88132C17.9188 4.88132 17.8998 5.04179 17.8925 5.23795C17.878 5.62406 17.8488 5.7153 17.689 5.87513C17.6396 5.92448 17.5402 5.98109 17.468 6.00091C17.3702 6.02777 16.685 6.03475 14.7837 6.02826L12.2306 6.01951L12.1096 5.93562C11.9019 5.79178 11.846 5.65144 11.8312 5.23795C11.8178 4.86332 11.8129 4.85276 11.6742 4.90241ZM11.3767 8.88844C11.0457 8.97512 10.8091 9.11331 10.5482 9.37237C10.2911 9.62763 10.1872 9.78767 10.0693 10.1101L9.98908 10.3295L9.98055 14.7457C9.97105 19.6601 9.96206 19.4241 10.1755 19.8698C10.3026 20.1352 10.6143 20.478 10.867 20.6302C10.9605 20.6866 11.1292 20.7686 11.2418 20.8123L11.4465 20.8919L14.7255 20.9017C17.1118 20.9087 18.0625 20.9018 18.2172 20.8762C18.3418 20.8555 18.5365 20.7901 18.6878 20.7181C19.0401 20.5503 19.3875 20.2082 19.5501 19.8691C19.7612 19.4288 19.7528 19.6515 19.7436 14.7447L19.7353 10.3295L19.6539 10.1069C19.5369 9.78676 19.4006 9.57788 19.1582 9.34775C18.9066 9.10888 18.6574 8.96926 18.3357 8.88701C18.1091 8.8291 17.9913 8.82713 14.8497 8.82873C11.7486 8.83034 11.588 8.83311 11.3767 8.88844ZM12.0998 11.6726C12.0417 11.7018 11.962 11.7735 11.9226 11.8319C11.8623 11.9214 11.853 11.9665 11.8636 12.1182C11.8753 12.2858 11.8852 12.3063 12.0073 12.4146L12.1385 12.5309L14.8794 12.5229L17.6202 12.5148L17.7015 12.4389C17.9539 12.2031 17.9153 11.8187 17.6245 11.6726C17.5263 11.6233 17.3309 11.6195 14.8622 11.6195C12.3934 11.6195 12.198 11.6233 12.0998 11.6726ZM12.1075 13.5305C11.7827 13.6779 11.7633 14.1486 12.0744 14.3359C12.1731 14.3954 12.229 14.3966 14.8622 14.3966H17.5492L17.6555 14.3304C17.7972 14.2421 17.8731 14.1059 17.8731 13.9395C17.8731 13.757 17.7899 13.6225 17.6256 13.5392L17.4908 13.4709L14.8633 13.4716C12.338 13.4722 12.2309 13.4745 12.1075 13.5305ZM0.743868 13.7824C0.652023 13.8213 0.553377 13.8665 0.524654 13.8828C0.391123 13.9585 0.190278 14.1911 0.0997086 14.375C0.00816736 14.5609 0 14.6011 0 14.8665C0 15.1195 0.010657 15.1785 0.0856511 15.3407C0.194013 15.5751 0.428862 15.8089 0.667963 15.9204C0.829276 15.9956 0.884899 16.0053 1.15375 16.0053C1.41815 16.0053 1.47896 15.9951 1.62436 15.9261C2.10287 15.6991 2.38141 15.1778 2.29126 14.6779C2.22204 14.2942 1.97541 13.973 1.62436 13.8096C1.37968 13.6956 0.977898 13.6832 0.743868 13.7824ZM28.2301 13.756C27.8094 13.8931 27.5135 14.236 27.433 14.6799C27.3427 15.1773 27.6222 15.6994 28.1 15.9261C28.247 15.9958 28.305 16.0053 28.5858 16.0053C28.8851 16.0053 28.9157 15.9994 29.0867 15.9092C29.3213 15.7855 29.5321 15.5674 29.6393 15.3375C29.7137 15.1783 29.7243 15.1193 29.7243 14.8671C29.7243 14.6178 29.7133 14.5553 29.643 14.4052C29.5344 14.1736 29.3109 13.9408 29.0872 13.8265C28.9303 13.7462 28.866 13.7317 28.6313 13.7237C28.4575 13.7178 28.3115 13.7295 28.2301 13.756ZM12.1742 15.3546C11.9887 15.4085 11.8513 15.593 11.8513 15.788C11.8513 15.9549 11.9163 16.0852 12.0456 16.1774L12.1448 16.2481H14.8622H17.5796L17.6787 16.1774C17.8093 16.0843 17.868 15.9643 17.868 15.7903C17.868 15.6049 17.7809 15.4658 17.6144 15.3852C17.486 15.3231 17.4551 15.3224 14.8753 15.3251C13.4403 15.3266 12.2248 15.3399 12.1742 15.3546ZM12.1127 17.2333C12.0784 17.2472 12.0067 17.3083 11.9533 17.369C11.8702 17.4636 11.8563 17.5026 11.8563 17.6409C11.8563 17.8348 11.9415 17.9821 12.0998 18.0616C12.198 18.1109 12.3934 18.1147 14.8622 18.1147C17.8291 18.1147 17.6499 18.1276 17.8018 17.9023C17.8994 17.7574 17.8859 17.4873 17.775 17.3687C17.6135 17.1958 17.7604 17.204 14.8561 17.2061C13.3816 17.2072 12.1471 17.2194 12.1127 17.2333ZM4.72368 23.2924C4.41624 23.4039 4.13487 23.6728 4.01825 23.9665C3.92319 24.206 3.92395 24.5838 4.01995 24.83C4.11459 25.0726 4.34109 25.312 4.59398 25.4364C4.78146 25.5287 4.81771 25.5358 5.10081 25.5358C5.38402 25.5358 5.42009 25.5287 5.60803 25.4362C6.46746 25.0133 6.47787 23.8206 5.62616 23.3643C5.45325 23.2717 5.40695 23.2609 5.14635 23.2527C4.93867 23.2463 4.82032 23.2574 4.72368 23.2924ZM24.0102 23.299C23.7051 23.4077 23.4646 23.6294 23.3261 23.9296C23.2684 24.0548 23.2573 24.1304 23.2573 24.3976C23.2573 24.6861 23.2654 24.7329 23.3432 24.8914C23.4565 25.122 23.6697 25.3364 23.8949 25.446C24.0608 25.5268 24.1054 25.5347 24.3958 25.5348C24.6872 25.5348 24.7297 25.5273 24.8892 25.4469C25.1255 25.3279 25.3275 25.1214 25.4407 24.8832C25.5263 24.703 25.5343 24.6597 25.5335 24.3824C25.5326 24.1126 25.523 24.0593 25.4471 23.9029C25.3385 23.6794 25.116 23.4563 24.8925 23.347C24.662 23.2343 24.2541 23.2121 24.0102 23.299ZM14.6193 27.4427C14.2608 27.5236 13.9592 27.7651 13.8044 28.0952C13.733 28.2475 13.7236 28.3045 13.7236 28.5862C13.7236 28.8846 13.7297 28.9164 13.8191 29.0874C13.9367 29.3121 14.1699 29.5351 14.4001 29.643C14.5502 29.7133 14.6128 29.7243 14.8622 29.7243C15.1146 29.7243 15.1738 29.7136 15.336 29.6387C15.5704 29.5304 15.8043 29.2956 15.9158 29.0566C15.9911 28.8952 16.0007 28.84 16.0005 28.571C16.0003 28.2336 15.9518 28.0833 15.7681 27.8514C15.5055 27.52 15.0285 27.3503 14.6193 27.4427Z" fill="url(#paint0_linear_3817_606)"/>
<defs>
<linearGradient id="paint0_linear_3817_606" x1="14.8622" y1="0" x2="14.8622" y2="29.7243" gradientUnits="userSpaceOnUse">
<stop stop-color="#005B94"/>
<stop offset="1" stop-color="#128940"/>
</linearGradient>
</defs>
</svg>
